<?xml version="1.0" encoding="iso-8859-1"?>
<!-- Generator: Adobe Illustrator 19.0.0, SVG Export Plug-In . SVG Version: 6.00 Build 0)  -->
<svg version="1.1" id="Layer_1" xmlns="http://www.w3.org/2000/svg" xmlns:xlink="http://www.w3.org/1999/xlink" x="0px" y="0px"
	 viewBox="0 0 512 512" style="enable-background:new 0 0 512 512;" xml:space="preserve">
<g>
	<g>
		<rect y="44.522" width="33.391" height="356.174"/>
	</g>
</g>
<g>
	<g>
		<rect x="478.609" y="44.522" width="33.391" height="289.391"/>
	</g>
</g>
<g>
	<g>
		<rect x="77.913" y="44.522" width="33.391" height="289.391"/>
	</g>
</g>
<g>
	<g>
		<rect x="77.913" y="367.304" width="33.391" height="33.391"/>
	</g>
</g>
<g>
	<g>
		<rect x="155.826" y="44.522" width="33.391" height="133.565"/>
	</g>
</g>
<g>
	<g>
		<rect x="155.826" y="367.304" width="33.391" height="33.391"/>
	</g>
</g>
<g>
	<g>
		<rect x="244.87" y="44.522" width="33.391" height="66.783"/>
	</g>
</g>
<g>
	<g>
		<rect x="322.783" y="44.522" width="33.391" height="66.783"/>
	</g>
</g>
<g>
	<g>
		<rect x="400.696" y="44.522" width="33.391" height="66.783"/>
	</g>
</g>
<g>
	<g>
		<path d="M478.609,400.696v-33.391h-33.391V211.478h-33.391v-33.391h-33.391v-33.391H256v33.391h-33.391v33.391h-33.391v122.435
			h33.391v33.391H256v33.391h155.826v33.391h33.391v33.391H512v-66.783H478.609z M378.435,333.913H256V211.478h122.435V333.913z"/>
	</g>
</g>
<g>
</g>
<g>
</g>
<g>
</g>
<g>
</g>
<g>
</g>
<g>
</g>
<g>
</g>
<g>
</g>
<g>
</g>
<g>
</g>
<g>
</g>
<g>
</g>
<g>
</g>
<g>
</g>
<g>
</g>
</svg>
